<?xml version="1.0" standalone="no"?><!DOCTYPE svg PUBLIC "-//W3C//DTD SVG 1.1//EN" "http://www.w3.org/Graphics/SVG/1.1/DTD/svg11.dtd"><svg t="1625715049268" class="icon" viewBox="0 0 1024 1024" version="1.1" xmlns="http://www.w3.org/2000/svg" p-id="13563" xmlns:xlink="http://www.w3.org/1999/xlink" width="200" height="200"><defs><style type="text/css"></style></defs><path d="M684.580525 728.322834m-295.677166 0a295.677166 295.677166 0 1 0 591.354333 0 295.677166 295.677166 0 1 0-591.354333 0Z" fill="#5CF1E7" p-id="13564"></path><path d="M387.196708 483.418514a42.666258 42.666258 0 0 0-42.666257 42.666258v185.598221a42.666258 42.666258 0 1 0 85.332515 0v-185.598221a42.666258 42.666258 0 0 0-42.666258-42.666258zM557.86174 483.418514a42.666258 42.666258 0 0 0-42.666258 42.666258v185.598221a42.666258 42.666258 0 0 0 85.332515 0v-185.598221a42.666258 42.666258 0 0 0-42.666257-42.666258z" fill="#A8B9E9" p-id="13565"></path><path d="M705.060329 362.673004v541.434812a13.22654 13.22654 0 0 1-13.22654 13.22654H248.958033a13.22654 13.22654 0 0 1-13.22654-13.22654V362.673004h469.328836m85.332516-85.332515h-639.993867v626.767327a98.985718 98.985718 0 0 0 98.559055 98.559055h442.875756a98.985718 98.985718 0 0 0 98.559056-98.559055V277.340489z" fill="#1F56F5" p-id="13566"></path><path d="M854.392231 277.340489H86.399591a42.666258 42.666258 0 0 0 0 85.332515h767.99264a42.666258 42.666258 0 0 0 0-85.332515zM675.193949 256.00736a42.666258 42.666258 0 0 1-42.666258-34.133006l-21.759792-108.372295A34.986331 34.986331 0 0 0 577.061556 85.342329h-213.331289a34.986331 34.986331 0 0 0-34.559669 28.15973L307.410806 221.874354a42.666258 42.666258 0 0 1-85.332515-17.066503l21.759791-107.945633A120.74551 120.74551 0 0 1 363.730267 0.009813h213.331289a120.74551 120.74551 0 0 1 118.185534 96.852405l21.759791 107.945633A42.666258 42.666258 0 0 1 683.7272 256.00736z" fill="#1F56F5" p-id="13567"></path></svg>