<?xml version="1.0" standalone="no"?><!DOCTYPE svg PUBLIC "-//W3C//DTD SVG 1.1//EN" "http://www.w3.org/Graphics/SVG/1.1/DTD/svg11.dtd"><svg t="1625728541355" class="icon" viewBox="0 0 1024 1024" version="1.1" xmlns="http://www.w3.org/2000/svg" p-id="15918" xmlns:xlink="http://www.w3.org/1999/xlink" width="200" height="200"><defs><style type="text/css"></style></defs><path d="M256 85.3h512c94.3 0 170.7 76.4 170.7 170.7v512c0 94.3-76.4 170.7-170.7 170.7H256c-94.3 0-170.7-76.4-170.7-170.7V256c0-94.3 76.4-170.7 170.7-170.7z m0 85.4c-47.1 0-85.3 38.2-85.3 85.3v512c0 47.1 38.2 85.3 85.3 85.3h512c47.1 0 85.3-38.2 85.3-85.3V256c0-47.1-38.2-85.3-85.3-85.3H256z" fill="#666666" p-id="15919"></path><path d="M469.3 469.3v-128c0-23.6 19.1-42.7 42.7-42.7s42.7 19.1 42.7 42.7v128h128c23.6 0 42.7 19.1 42.7 42.7s-19.1 42.7-42.7 42.7h-128v128c0 23.6-19.1 42.7-42.7 42.7s-42.7-19.1-42.7-42.7v-128h-128c-23.6 0-42.7-19.1-42.7-42.7s19.1-42.7 42.7-42.7h128z" fill="#00A2FF" p-id="15920"></path></svg>