<?xml version="1.0" standalone="no"?><!DOCTYPE svg PUBLIC "-//W3C//DTD SVG 1.1//EN" "http://www.w3.org/Graphics/SVG/1.1/DTD/svg11.dtd"><svg t="1625715070936" class="icon" viewBox="0 0 1024 1024" version="1.1" xmlns="http://www.w3.org/2000/svg" p-id="14399" xmlns:xlink="http://www.w3.org/1999/xlink" width="200" height="200"><defs><style type="text/css"></style></defs><path d="M872.7 278.8H151.5c-30.3 0-55-24.7-55-55v-32.7c0-22 17.9-39.9 39.9-39.9h744.4c25.7 0 46.7 21 46.7 46.7v25.9c0 30.4-24.6 55-54.8 55z m-736.3-96.3c-4.8 0-8.6 3.9-8.6 8.7v32.7c0 13.1 10.7 23.7 23.7 23.7h721.2c13.2 0 23.6-10.4 23.6-23.7V198c0-8.5-7-15.5-15.5-15.5H136.4z" fill="#E86262" p-id="14400"></path><path d="M602.9 182.5H421.1v-17.6c0-50.1 40.8-90.8 90.9-90.8 50.1 0 90.9 40.8 90.9 90.8v17.6zM454 151.2h116c-6.2-26.3-29.9-45.9-58-45.9-28.2 0-51.8 19.6-58 45.9zM695.8 948H328.1C267.4 948 218 898.6 218 837.9V247.6h588v590.3c0 60.7-49.4 110.1-110.2 110.1zM249.3 278.8v559c0 43.5 35.4 78.9 78.9 78.9h367.7c43.5 0 78.9-35.4 78.9-78.9v-559H249.3z" fill="#E86262" p-id="14401"></path><path d="M400.7 784.9c-8.6 0-15.6-7-15.6-15.6v-386c0-8.6 7-15.6 15.6-15.6s15.6 7 15.6 15.6v386c0 8.6-7 15.6-15.6 15.6zM512 784.9c-8.6 0-15.6-7-15.6-15.6v-386c0-8.6 7-15.6 15.6-15.6s15.6 7 15.6 15.6v386c0 8.6-7 15.6-15.6 15.6zM623.3 728.9c-8.6 0-15.6-7-15.6-15.6v-330c0-8.6 7-15.6 15.6-15.6s15.6 7 15.6 15.6v330c0 8.6-7 15.6-15.6 15.6z" fill="#E86262" p-id="14402"></path></svg>