<?xml version="1.0" standalone="no"?><!DOCTYPE svg PUBLIC "-//W3C//DTD SVG 1.1//EN" "http://www.w3.org/Graphics/SVG/1.1/DTD/svg11.dtd"><svg t="1625728795625" class="icon" viewBox="0 0 1024 1024" version="1.1" xmlns="http://www.w3.org/2000/svg" p-id="16942" xmlns:xlink="http://www.w3.org/1999/xlink" width="200" height="200"><defs><style type="text/css"></style></defs><path d="M576.512 560.0768m-354.9696 0a354.9696 354.9696 0 1 0 709.9392 0 354.9696 354.9696 0 1 0-709.9392 0Z" fill="#56E5BE" p-id="16943"></path><path d="M612.1984 595.712m-319.2832 0a319.2832 319.2832 0 1 0 638.5664 0 319.2832 319.2832 0 1 0-638.5664 0Z" fill="#50DDB8" p-id="16944"></path><path d="M648.6528 621.7216m-277.6064 0a277.6064 277.6064 0 1 0 555.2128 0 277.6064 277.6064 0 1 0-555.2128 0Z" fill="#42D3AD" p-id="16945"></path><path d="M511.8976 920.0128c-227.3792 0-412.3648-184.9856-412.3648-412.3648s184.9856-412.3648 412.3648-412.3648 412.3648 184.9856 412.3648 412.3648-184.9856 412.3648-412.3648 412.3648z m0-763.2384c-193.4848 0-350.9248 157.44-350.9248 350.9248s157.44 350.9248 350.9248 350.9248 350.9248-157.44 350.9248-350.9248-157.44-350.9248-350.9248-350.9248z" fill="#2E3138" p-id="16946"></path><path d="M651.7248 466.6368h-108.0832V358.5536c0-16.9472-13.7728-30.72-30.72-30.72s-30.72 13.7728-30.72 30.72v108.0832H374.1184c-16.9472 0-30.72 13.7728-30.72 30.72s13.7728 30.72 30.72 30.72h108.0832v108.0832c0 16.9472 13.7728 30.72 30.72 30.72s30.72-13.7728 30.72-30.72v-108.0832h108.0832c16.9472 0 30.72-13.7728 30.72-30.72s-13.7728-30.72-30.72-30.72z" fill="#2E3138" p-id="16947"></path></svg>