<?xml version="1.0" standalone="no"?><!DOCTYPE svg PUBLIC "-//W3C//DTD SVG 1.1//EN" "http://www.w3.org/Graphics/SVG/1.1/DTD/svg11.dtd"><svg t="1625686155667" class="icon" viewBox="0 0 1024 1024" version="1.1" xmlns="http://www.w3.org/2000/svg" p-id="7581" xmlns:xlink="http://www.w3.org/1999/xlink" width="200" height="200"><defs><style type="text/css"></style></defs><path d="M321 538.9c-5.8 0-11.7-2-16.4-6.2-10.4-9.1-11.5-24.9-2.4-35.3l307-351.3c9.1-10.4 24.9-11.5 35.3-2.4 10.4 9.1 11.5 24.9 2.4 35.3l-307 351.3c-5 5.7-11.9 8.6-18.9 8.6z" p-id="7582"></path><path d="M629.1 891c-7 0-13.9-2.9-18.8-8.5l-307-351.3c-9.1-10.4-8-26.2 2.4-35.3 10.4-9.1 26.2-8 35.3 2.4l307 351.3c9.1 10.4 8 26.2-2.4 35.3-4.8 4-10.7 6.1-16.5 6.1z" p-id="7583"></path></svg>